<svg width="163" height="29" viewBox="0 0 163 29" fill="none" xmlns="http://www.w3.org/2000/svg">
<path fill-rule="evenodd" clip-rule="evenodd" d="M9.9325 1.01376L14.8465 9.82324L41 9.79196L36.086 0.982483L9.9325 1.01376ZM0 16.1758L4.914 24.9825L31.0675 24.9512L26.1535 16.1446L0 16.1758ZM17.7268 14.9815L15.6583 11.2735L19.3988 11.3275L21.4672 15.0356L17.7268 14.9815ZM59.5813 8.5505C59.6453 8.2305 59.6773 7.79317 59.6773 7.2385C59.6773 6.9185 59.656 6.60917 59.6133 6.3105C59.5707 5.9905 59.496 5.71317 59.3893 5.4785C59.2827 5.2225 59.1227 5.0305 58.9093 4.9025C58.696 4.75317 58.4187 4.6785 58.0773 4.6785C57.6933 4.6785 57.3413 4.76383 57.0213 4.9345C56.7013 5.10516 56.4133 5.32916 56.1573 5.6065C55.9227 5.8625 55.7307 6.17183 55.5813 6.5345C55.4533 6.87583 55.3893 7.2385 55.3893 7.6225C55.3893 8.17717 55.528 8.60384 55.8053 8.9025C56.104 9.20116 56.488 9.4465 56.9573 9.6385C57.4267 9.8305 57.96 9.9905 58.5573 10.1185C59.1547 10.2465 59.7733 10.3958 60.4133 10.5665C60.9467 10.7158 61.48 10.9078 62.0133 11.1425C62.5467 11.3772 63.016 11.6972 63.4213 12.1025C63.848 12.4865 64.1893 12.9985 64.4453 13.6385C64.7013 14.2572 64.8293 15.0358 64.8293 15.9745C64.8293 17.3185 64.5627 18.4492 64.0293 19.3665C63.496 20.2838 62.76 21.0305 61.8213 21.6065C60.8827 22.1825 59.7627 22.5985 58.4613 22.8545C57.1813 23.1105 55.784 23.2385 54.2693 23.2385C52.7333 23.2385 51.4747 23.1425 50.4933 22.9505C49.5333 22.7372 48.776 22.5132 48.2213 22.2785C47.56 22.0012 47.0693 21.6812 46.7493 21.3185L47.8373 16.9345H53.4693C53.448 17.1265 53.4267 17.3932 53.4053 17.7345C53.384 18.0545 53.3733 18.3105 53.3733 18.5025C53.3733 18.7585 53.4053 19.0252 53.4693 19.3025C53.5333 19.5798 53.6293 19.8358 53.7573 20.0705C53.9067 20.3052 54.1093 20.4972 54.3653 20.6465C54.6213 20.7958 54.9413 20.8705 55.3253 20.8705C55.752 20.8705 56.1253 20.7745 56.4453 20.5825C56.7867 20.3905 57.064 20.1558 57.2773 19.8785C57.512 19.5798 57.6827 19.2598 57.7893 18.9185C57.9173 18.5558 57.9813 18.2038 57.9813 17.8625C57.9813 17.3932 57.864 16.9985 57.6293 16.6785C57.416 16.3585 57.1173 16.0918 56.7333 15.8785C56.3493 15.6438 55.9013 15.4518 55.3893 15.3025C54.8987 15.1318 54.3867 14.9612 53.8533 14.7905C53.3413 14.6412 52.7973 14.4598 52.2213 14.2465C51.6667 14.0332 51.1547 13.7345 50.6853 13.3505C50.216 12.9665 49.8213 12.4865 49.5013 11.9105C49.2027 11.3132 49.0533 10.5558 49.0533 9.6385C49.0533 8.27316 49.3947 7.13184 50.0773 6.2145C50.7813 5.27583 51.656 4.5185 52.7013 3.9425C53.768 3.3665 54.9307 2.96117 56.1893 2.7265C57.448 2.4705 58.6427 2.3425 59.7733 2.3425C61.2667 2.3425 62.5467 2.52383 63.6133 2.8865C64.7013 3.22783 65.5227 3.63316 66.0773 4.1025L64.8933 8.5505H59.5813ZM66.8828 9.2225C67.6722 9.05183 68.3655 8.85983 68.9628 8.6465C69.5602 8.43317 70.1042 8.1665 70.5948 7.8465C71.1068 7.5265 71.5868 7.13184 72.0348 6.6625C72.5042 6.19317 73.0055 5.61716 73.5388 4.9345H76.8348L75.9068 9.2225H78.4028L77.9868 11.3665H75.4588L74.1468 17.6065C74.0402 18.0972 73.9548 18.5345 73.8908 18.9185C73.8268 19.3025 73.7948 19.6012 73.7948 19.8145C73.7948 20.2412 73.9442 20.5078 74.2428 20.6145C74.5628 20.7212 75.1495 20.7745 76.0028 20.7745L75.5228 22.9825C75.3735 23.0252 75.1388 23.0572 74.8188 23.0785C74.5202 23.0998 74.1788 23.1212 73.7948 23.1425C73.4322 23.1852 73.0482 23.2065 72.6428 23.2065C72.2588 23.2278 71.9175 23.2385 71.6188 23.2385C71.0855 23.2385 70.5628 23.1958 70.0508 23.1105C69.5388 23.0465 69.0802 22.9078 68.6748 22.6945C68.2695 22.4598 67.9388 22.1292 67.6828 21.7025C67.4482 21.2758 67.3308 20.6998 67.3308 19.9745C67.3308 19.7185 67.3415 19.3985 67.3628 19.0145C67.4055 18.6305 67.4802 18.2038 67.5868 17.7345L68.9308 11.3665H66.4348L66.8828 9.2225ZM83.5741 9.2545C82.4434 9.48917 81.3341 9.87317 80.2461 10.4065L79.6381 13.2545H84.3101C84.4167 12.6358 84.6407 12.1132 84.9821 11.6865C85.3447 11.2385 85.8994 11.0145 86.6461 11.0145C87.2861 11.0145 87.7021 11.1852 87.8941 11.5265C88.1074 11.8465 88.2141 12.1985 88.2141 12.5825C88.2141 12.8812 88.1821 13.2332 88.1181 13.6385C88.0541 14.0225 88.0007 14.3212 87.9581 14.5345C86.6994 14.5345 85.4408 14.5772 84.1821 14.6625C82.9447 14.7478 81.8248 14.9612 80.8221 15.3025C79.8407 15.6225 79.0407 16.1132 78.4221 16.7745C77.8248 17.4145 77.5261 18.2892 77.5261 19.3985C77.5261 20.0812 77.6434 20.6678 77.8781 21.1585C78.1127 21.6278 78.4221 22.0225 78.8061 22.3425C79.1901 22.6412 79.6274 22.8652 80.1181 23.0145C80.6087 23.1638 81.1101 23.2385 81.6221 23.2385C82.5181 23.2385 83.4141 23.0465 84.3101 22.6625C85.2274 22.2572 86.0274 21.6812 86.7101 20.9345H86.9021L87.4781 22.9825H92.6301L94.1341 15.9425C94.1981 15.6225 94.2514 15.2278 94.2941 14.7585C94.3581 14.2892 94.3901 13.8518 94.3901 13.4465C94.3901 12.7425 94.2834 12.1132 94.0701 11.5585C93.8568 11.0038 93.4834 10.5238 92.9501 10.1185C92.4167 9.71317 91.7021 9.40383 90.8061 9.1905C89.9101 8.97717 88.7794 8.8705 87.4141 8.8705C86.0061 8.8705 84.7261 8.9985 83.5741 9.2545ZM87.0301 16.0385H87.6061L87.0941 18.5025C86.9874 19.0358 86.7101 19.4625 86.2621 19.7825C85.8354 20.1025 85.3981 20.2625 84.9501 20.2625C84.5874 20.2625 84.2674 20.1345 83.9901 19.8785C83.7341 19.6225 83.6061 19.2385 83.6061 18.7265C83.6061 18.4065 83.6701 18.0865 83.7981 17.7665C83.9261 17.4465 84.1181 17.1585 84.3741 16.9025C84.6514 16.6465 85.0034 16.4438 85.4301 16.2945C85.8781 16.1238 86.4114 16.0385 87.0301 16.0385ZM103.005 9.2225L103.965 18.6305L109.021 9.2225H112.413L104.701 22.9825C103.933 24.3265 103.155 25.3612 102.365 26.0865C101.576 26.8118 100.712 27.3452 99.7733 27.6865C98.856 28.0278 97.832 28.2198 96.7013 28.2625C95.592 28.3265 94.3227 28.3585 92.8933 28.3585L93.3733 26.1505C94.0773 26.1505 94.728 26.1398 95.3253 26.1185C95.944 26.0972 96.4347 26.0332 96.7973 25.9265C97.288 25.7985 97.64 25.5638 97.8533 25.2225C98.0667 24.9025 98.1733 24.4225 98.1733 23.7825C98.1733 23.3558 98.1307 22.8652 98.0453 22.3105C97.9813 21.7558 97.9067 21.1692 97.8213 20.5505L96.2533 9.2225H103.005ZM112.529 5.0945H120.593L110.065 20.0705L109.489 22.9825H126.065L126.513 20.5505H118.097L128.529 5.3825L128.817 2.6625H113.009L112.529 5.0945ZM134.137 16.5505C134.051 17.0198 133.988 17.4678 133.945 17.8945C133.923 18.3212 133.913 18.7052 133.913 19.0465C133.913 19.2385 133.923 19.4518 133.945 19.6865C133.966 19.9212 134.009 20.1452 134.073 20.3585C134.158 20.5505 134.265 20.7212 134.393 20.8705C134.542 20.9985 134.745 21.0625 135.001 21.0625C135.193 21.0625 135.406 20.9985 135.641 20.8705C135.897 20.7425 136.142 20.5612 136.377 20.3265C136.633 20.0918 136.867 19.8038 137.081 19.4625C137.315 19.1212 137.497 18.7372 137.625 18.3105H142.873L142.041 21.7345C141.614 22.0118 141.124 22.2465 140.569 22.4385C140.014 22.6305 139.427 22.7905 138.809 22.9185C138.19 23.0252 137.561 23.0998 136.921 23.1425C136.281 23.2065 135.673 23.2385 135.097 23.2385C134.03 23.2385 133.038 23.1425 132.121 22.9505C131.203 22.7585 130.403 22.4278 129.721 21.9585C129.038 21.4892 128.494 20.8705 128.089 20.1025C127.705 19.3132 127.513 18.3425 127.513 17.1905C127.513 16.1452 127.673 15.1212 127.993 14.1185C128.334 13.1158 128.889 12.2305 129.657 11.4625C130.446 10.6732 131.492 10.0438 132.793 9.5745C134.115 9.10516 135.758 8.8705 137.721 8.8705C139.854 8.8705 141.454 9.20116 142.521 9.8625C143.609 10.5238 144.153 11.5585 144.153 12.9665C144.153 13.5425 144.067 14.1718 143.897 14.8545C143.726 15.5158 143.47 16.0812 143.129 16.5505H134.137ZM137.305 11.0465C136.964 11.0465 136.643 11.1638 136.345 11.3985C136.067 11.6118 135.811 11.9105 135.577 12.2945C135.342 12.6572 135.129 13.0838 134.937 13.5745C134.745 14.0438 134.585 14.5452 134.457 15.0785H138.105C138.147 14.8225 138.19 14.5558 138.233 14.2785C138.275 14.0438 138.307 13.7878 138.329 13.5105C138.371 13.2332 138.393 12.9772 138.393 12.7425C138.393 12.0812 138.286 11.6332 138.073 11.3985C137.859 11.1638 137.604 11.0465 137.305 11.0465ZM154.741 10.0865C154.186 10.4492 153.685 10.8438 153.237 11.2705H153.045L152.469 9.2225H147.253L144.341 22.9825H150.869L152.981 13.0305C153.173 12.8385 153.439 12.6038 153.781 12.3265C154.143 12.0492 154.517 11.9105 154.901 11.9105C155.221 11.9105 155.455 12.0172 155.605 12.2305C155.775 12.4225 155.861 12.6785 155.861 12.9985C155.861 13.2332 155.829 13.4998 155.765 13.7985C155.701 14.0758 155.647 14.3532 155.605 14.6305L153.845 22.9825H160.341L161.685 16.7425C161.749 16.4012 161.823 16.0172 161.909 15.5905C162.016 15.1425 162.112 14.7052 162.197 14.2785C162.282 13.8518 162.357 13.4465 162.421 13.0625C162.485 12.6572 162.517 12.3158 162.517 12.0385C162.517 11.0572 162.154 10.2892 161.429 9.7345C160.703 9.1585 159.786 8.8705 158.677 8.8705C157.866 8.8705 157.13 8.9985 156.469 9.2545C155.807 9.5105 155.231 9.78783 154.741 10.0865Z" fill="white"/>
</svg>
